# xmcd
#
# Track frame offsets:
#	182
#	14292
#	32412
#	49652
#	64860
#	83462
#	95995
#	111157
#	126407
#	144075
#	162277
#	181957
#	198057
#	211135
#	226987
#	243512
#	259317
#	274287
#
# Disc length: 3833 seconds
#
# Revision: 4
# Processed by: cddbd v1.4PL0 Copyright (c) Steve Scherf et al.
# Submitted via: audiograbber 1.82.02
#
DISCID=f50ef712
DTITLE=Various Artist - Country Love [CD1]
DYEAR=1900
DGENRE=Country
TTITLE0=George Strait - Love Without End, Amen
TTITLE1=Pam Tillis - Maybe It Was Memphis
TTITLE2=Ricky Van Shelton - Keep It Between The Lines
TTITLE3=Mark Chesnutt - I Just Wanted You To Know
TTITLE4=Little Texas - My Love
TTITLE5=Faith Hill - Wild One
TTITLE6=Confederate Railroad - Queen Of Memphis
TTITLE7=Bryan White - Someone Else's Star
TTITLE8=John Berry - Your Love Amazes Me
TTITLE9=John Michael Montgomery - I Love The Way You Love Me
TTITLE10=The Judds - Young Love
TTITLE11=Randy Travis - Forever And Ever, Amen
TTITLE12=Sammy Kershaw - She Don't Know She's Beautiful
TTITLE13=Toby Keith - Should've Been A Cowboy
TTITLE14=Brother Phelps - Let Go
TTITLE15=Tracy Lawrence - Texas Tornado
TTITLE16=Billy Dean - Somewhere In My Broken Heart
TTITLE17=Dwight Yoakam - If There Was A Way
EXTD=
EXTT0=George Strait
EXTT1=Pam Tillis
EXTT2=Ricky Van Shelton
EXTT3=Mark Chesnutt
EXTT4=Little Texas
EXTT5=Faith Hill
EXTT6=Confederate Railroad
EXTT7=Bryan White
EXTT8=John Berry
EXTT9=John Michael Montgomery
EXTT10=The Judds
EXTT11=Randy Travis
EXTT12=Sammy Kershaw
EXTT13=Toby Keith
EXTT14=Brother Phelps
EXTT15=Tracy Lawrence
EXTT16=Billy Dean
EXTT17=Dwight Yoakam
PLAYORDER=
